# Blender v2.92.0 OBJ File: ''
# www.blender.org
mtllib board4.mtl
o Boardxpf.001_Cube_Cube.001
v -11.751424 11.820348 -3.570065
v -11.751422 -10.520061 -3.570067
v 10.991169 -10.520058 -4.002810
v 10.991167 11.820350 -4.002809
v 10.990187 -10.520058 -4.054465
v 10.990185 11.820350 -4.054463
v -11.752405 -10.520061 -3.621726
v -11.752407 11.820348 -3.621724
vt 0.375000 0.000000
vt 0.625000 0.000000
vt 0.625000 0.250000
vt 0.375000 0.250000
vt 0.625000 0.500000
vt 0.375000 0.500000
vt 0.625000 0.750000
vt 0.375000 0.750000
vt 0.625000 1.000000
vt 0.375000 1.000000
vt 0.125000 0.500000
vt 0.125000 0.750000
vt 0.875000 0.500000
vt 0.875000 0.750000
vn 0.0190 -0.0000 0.9998
vn 0.9998 0.0000 -0.0190
vn -0.0190 0.0000 -0.9998
vn -0.9998 -0.0000 0.0190
vn -0.0000 1.0000 -0.0000
vn 0.0000 -1.0000 -0.0000
usemtl None
s 1
f 1/1/1 2/2/1 3/3/1 4/4/1
f 4/4/2 3/3/2 5/5/2 6/6/2
f 6/6/3 5/5/3 7/7/3 8/8/3
f 8/8/4 7/7/4 2/9/4 1/10/4
f 4/11/5 6/6/5 8/8/5 1/12/5
f 5/5/6 3/13/6 2/14/6 7/7/6
